<svg width="534" height="250" xmlns="http://www.w3.org/2000/svg">
 <style type="text/css">.st0{fill:#DD0031;}
	.st1{fill:#C3002F;}
	.st2{fill:#FFFFFF;}</style>

 <g>
  <title>background</title>
  <rect fill="none" id="canvas_background" height="252" width="536" y="-1" x="-1"/>
 </g>
 <g>
  <title>Layer 1</title>
  <g id="svg_1">
   <polygon id="svg_2" points="125,30 125,30 125,30 31.9,63.2 46.1,186.3 125,230 125,230 125,230 203.9,186.3 218.1,63.2  " class="st0"/>
   <polygon id="svg_3" points="125,30 125,52.2 125,52.1 125,153.4 125,153.4 125,230 125,230 203.9,186.3 218.1,63.2 125,30  " class="st1"/>
   <path id="svg_4" d="m125,52.1l-58.2,130.5l0,0l21.7,0l0,0l11.7,-29.2l49.4,0l11.7,29.2l0,0l21.7,0l0,0l-58,-130.5l0,0l0,0l0,0l0,0zm17,83.3l-34,0l17,-40.9l17,40.9z" class="st2"/>
  </g>
  <g stroke="null" id="svg_10">
   <path fill="#3f007f" id="svg_8" d="m351.326195,49.120542c-3.718982,0.434579 -6.587217,1.257992 -9.89298,2.859072c-5.371864,2.584601 -9.55268,6.518684 -12.29938,11.573523c-1.385503,2.584601 -2.041794,4.231426 -2.649471,6.907518c-0.41322,1.852679 -0.437527,4.643133 -0.437527,58.553793s0.024307,56.701114 0.437527,58.553793c0.607677,2.676091 1.263968,4.322917 2.649471,6.907518c2.746699,5.054839 6.927516,8.988922 12.29938,11.573523c2.746699,1.303737 4.496809,1.921296 7.340737,2.493111c1.968873,0.388834 4.934336,0.411706 62.226112,0.411706s60.257239,-0.022873 62.226112,-0.411706c2.843928,-0.571814 4.594037,-1.189374 7.340737,-2.493111c5.371864,-2.584601 9.55268,-6.518684 12.29938,-11.573523c1.385503,-2.584601 2.041794,-4.231426 2.649471,-6.907518c0.41322,-1.852679 0.437527,-4.643133 0.437527,-58.553793s-0.024307,-56.701114 -0.437527,-58.553793c-0.607677,-2.676091 -1.263968,-4.322917 -2.649471,-6.907518c-3.864825,-7.136243 -10.670806,-12.07672 -19.397046,-14.043761c-1.725802,-0.388834 -4.812801,-0.411706 -61.618435,-0.457452c-32.887472,-0.022873 -60.111396,0.022873 -60.524617,0.068618zm76.640207,35.132276c11.521554,2.058532 18.303227,6.976135 20.806856,15.073027c1.239661,4.071318 1.361196,9.85808 0.267378,13.792163c-0.486141,1.715443 -1.920259,4.643133 -2.965463,6.03836c-1.944566,2.584601 -5.323249,5.214947 -8.750547,6.861773c-0.850748,0.388834 -1.531346,0.80054 -1.531346,0.89203c0,0.114363 0.559063,0.320216 1.239661,0.457452c0.680598,0.160108 2.066101,0.594687 3.086999,0.983521c9.042232,3.385141 14.122411,11.527778 14.146718,22.64385c0,6.541557 -2.187637,12.328318 -6.246918,16.422509c-4.56973,4.643133 -10.986798,7.525077 -20.247793,9.103285c-2.066101,0.343089 -5.080179,0.388834 -28.974033,0.457452l-26.689168,0.09149l0,-93.365852l26.932239,0.09149c23.213257,0.068618 27.17531,0.137235 28.925419,0.457452z"/>
   <path fill="#3f007f" id="svg_9" d="m389.609838,109.915847l0,12.945878l15.87252,-0.09149c13.903647,-0.068618 16.018362,-0.114363 17.185102,-0.457452c3.840518,-1.097884 6.976131,-3.408014 8.361634,-6.198468c1.069511,-2.104277 1.361196,-3.499504 1.361196,-6.495811c-0.024307,-5.741016 -1.823031,-9.103285 -5.906619,-10.910218c-3.427298,-1.532463 -3.451605,-1.532463 -21.001313,-1.646825l-15.87252,-0.114363l0,12.96875zm0,39.226467l0,14.661321l17.330944,-0.068618c16.966338,-0.068618 17.355252,-0.09149 19.202589,-0.594687c2.771007,-0.731922 4.666958,-1.761188 6.611524,-3.590994c2.941156,-2.744709 4.083589,-5.695271 4.083589,-10.521385c0,-4.757496 -1.239661,-7.845293 -4.205124,-10.498512c-1.920259,-1.692571 -3.840518,-2.653219 -6.830288,-3.362269c-1.968873,-0.480324 -2.552243,-0.503197 -19.105361,-0.594687l-17.087874,-0.114363l0,14.684193z"/>
  </g>
  <text stroke="null" transform="matrix(4.210702419281006,0,0,4.74545431137085,-785.0167415142059,-398.8908841609955) " xml:space="preserve" text-anchor="start" font-family="Helvetica, Arial, sans-serif" font-size="24" id="svg_11" y="117.331417" x="243.55004" stroke-width="0" fill="#56ff56">+</text>
 </g>
</svg>