<svg width="700" height="700" xmlns="http://www.w3.org/2000/svg">

 <g>
  <title>background</title>
  <rect fill="none" id="canvas_background" height="402" width="582" y="-1" x="-1"/>
 </g>
 <g>
  <title>Layer 1</title>
  <path fill="#5f00bf" id="svg_1" d="m104.5,0.7c-15.3,1.9 -27.1,5.5 -40.7,12.5c-22.1,11.3 -39.3,28.5 -50.6,50.6c-5.7,11.3 -8.4,18.5 -10.9,30.2c-1.7,8.1 -1.8,20.3 -1.8,256s0.1,247.9 1.8,256c2.5,11.7 5.2,18.9 10.9,30.2c11.3,22.1 28.5,39.3 50.6,50.6c11.3,5.7 18.5,8.4 30.2,10.9c8.1,1.7 20.3,1.8 256,1.8s247.9,-0.1 256,-1.8c11.7,-2.5 18.9,-5.2 30.2,-10.9c22.1,-11.3 39.3,-28.5 50.6,-50.6c5.7,-11.3 8.4,-18.5 10.9,-30.2c1.7,-8.1 1.8,-20.3 1.8,-256s-0.1,-247.9 -1.8,-256c-2.5,-11.7 -5.2,-18.9 -10.9,-30.2c-15.9,-31.2 -43.9,-52.8 -79.8,-61.4c-7.1,-1.7 -19.8,-1.8 -253.5,-2c-135.3,-0.1 -247.3,0.1 -249,0.3zm315.3,153.6c47.4,9 75.3,30.5 85.6,65.9c5.1,17.8 5.6,43.1 1.1,60.3c-2,7.5 -7.9,20.3 -12.2,26.4c-8,11.3 -21.9,22.8 -36,30c-3.5,1.7 -6.3,3.5 -6.3,3.9c0,0.5 2.3,1.4 5.1,2c2.8,0.7 8.5,2.6 12.7,4.3c37.2,14.8 58.1,50.4 58.2,99c0,28.6 -9,53.9 -25.7,71.8c-18.8,20.3 -45.2,32.9 -83.3,39.8c-8.5,1.5 -20.9,1.7 -119.2,2l-109.8,0.4l0,-408.2l110.8,0.4c95.5,0.3 111.8,0.6 119,2z"/>
  <path fill="#3f007f" stroke="#3f007f" id="svg_2" d="m262,266.5l0,56.6l65.3,-0.4c57.2,-0.3 65.9,-0.5 70.7,-2c15.8,-4.8 28.7,-14.9 34.4,-27.1c4.4,-9.2 5.6,-15.3 5.6,-28.4c-0.1,-25.1 -7.5,-39.8 -24.3,-47.7c-14.1,-6.7 -14.2,-6.7 -86.4,-7.2l-65.3,-0.5l0,56.7zm0,171.5l0,64.1l71.3,-0.3c69.8,-0.3 71.4,-0.4 79,-2.6c11.4,-3.2 19.2,-7.7 27.2,-15.7c12.1,-12 16.8,-24.9 16.8,-46c0,-20.8 -5.1,-34.3 -17.3,-45.9c-7.9,-7.4 -15.8,-11.6 -28.1,-14.7c-8.1,-2.1 -10.5,-2.2 -78.6,-2.6l-70.3,-0.5l0,64.2z"/>
 </g>
</svg>