<svg width="145" height="143" xmlns="http://www.w3.org/2000/svg">

 <g>
  <title>background</title>
  <rect fill="none" id="canvas_background" height="145" width="147" y="-1" x="-1"/>
 </g>
 <g>
  <title>Layer 1</title>
  <g stroke="null" id="svg_1" fill-rule="evenodd" fill="none">
   <path stroke="null" id="svg_2" d="m-192.999986,-54.937303l464.999965,0l0,141.937301l-464.999965,0l0,-141.937301z"/>
   <path stroke="null" id="svg_4" fill="#00A818" d="m114.137567,17.261467a25.590602,22.38242 0 0 0 -4.837248,44.355406l0,6.277996c15.291945,-1.910694 28.711407,-12.555992 29.647649,-26.476766a26.526844,23.20129 0 0 0 -12.17114,-21.154117a21.533555,18.833988 0 0 0 -1.404362,-0.682391l-1.560403,-0.545913l-0.312081,-0.272956l-1.560403,-0.409435a25.278522,22.109464 0 0 0 -7.802013,-1.091825z"/>
   <path stroke="null" id="svg_5" fill="#FFF" d="m112.442936,21.586635a2.808725,2.456607 0 0 0 -2.496644,0.818869l-1.092282,1.637738c-0.936242,1.910694 -0.624161,3.957867 0.780201,5.459127a6.865771,6.00504 0 0 0 5.461409,-5.459127c0,-1.364782 -1.248322,-2.320129 -2.652684,-2.456607zm-11.390939,0c-1.560403,0.272956 -2.808725,1.228304 -2.808725,2.593085c0,0.545913 0.15604,1.228304 0.468121,1.774216a7.021812,6.141518 0 0 0 5.149328,3.548433a6.24161,5.459127 0 0 0 0.624161,-5.459127l-1.092282,-1.50126a2.808725,2.456607 0 0 0 -2.340604,-0.818869l0,-0.136478zm-7.802013,6.687431c-2.340604,0 -3.432886,2.729563 -1.404362,4.094345c0.624161,0.545913 1.248322,0.818869 1.872483,1.091825c2.184564,0.818869 4.681208,0.545913 6.553691,-0.545913a7.177852,6.277996 0 0 0 -6.397651,-4.640258l-0.468121,0l-0.15604,0zm24.18624,8.18869a7.177852,6.277996 0 0 0 -4.057047,1.091825a7.177852,6.277996 0 0 0 6.397651,4.640258c2.808725,0.136478 4.213087,-2.866042 2.028523,-4.230823l-1.872483,-0.955347a6.709731,5.868561 0 0 0 -2.496644,-0.409435l0,-0.136478zm-21.533555,0.136478c-0.780201,0 -1.560403,0.272956 -2.496644,0.545913c-0.780201,0.272956 -1.404362,0.545913 -1.872483,0.955347c-2.028523,1.50126 -0.624161,4.367302 2.184564,4.230823c0.780201,0 1.560403,-0.136478 2.184564,-0.409435a6.553691,5.732083 0 0 0 4.057047,-4.230823a7.021812,6.141518 0 0 0 -4.057047,-1.091825zm29.335568,4.094345a6.865771,6.00504 0 0 0 -5.305369,5.322649c-0.15604,2.320129 3.432886,3.548433 4.993288,1.774216l1.092282,-1.637738c0.936242,-1.774216 0.624161,-3.821389 -0.624161,-5.459127l-0.15604,0zm5.92953,0.136478a6.24161,5.459127 0 0 0 -0.624161,5.459127l1.092282,1.50126c1.560403,1.637738 5.305369,0.409435 5.149328,-1.637738c0,-0.545913 -0.15604,-1.228304 -0.468121,-1.774216a7.021812,6.141518 0 0 0 -5.149328,-3.548433z"/>
   <text stroke="null" transform="matrix(1.5604025658745115,0,0,1.3647817373275757,-164.99998569488525,0.06269686110317707) " id="svg_6" x="273" y="13" fill="#00A818" font-family="Roboto" font-size="10">
    <tspan stroke="null" id="svg_7" y="9" x="0.4">™</tspan>
   </text>
   <text stroke="null" transform="matrix(2.4957332393494562,0,0,2.2589341653646873,-146.60623379381553,-93.51025695072734) " xml:space="preserve" text-anchor="start" font-family="Helvetica, Arial, sans-serif" font-size="24" id="svg_8" y="92.0085" x="60.784895" stroke-opacity="null" stroke-width="0" fill="#619E73">BDD</text>
   <text xml:space="preserve" text-anchor="start" font-family="Helvetica, Arial, sans-serif" font-size="24" id="svg_9" y="60.9375" x="16" stroke-width="0" fill="#7B572D">cucumber</text>
  </g>
 </g>
</svg>