<svg width="188" height="186" xmlns="http://www.w3.org/2000/svg">
 <!-- Generator: Sketch 41.1 (35376) - http://www.bohemiancoding.com/sketch -->

 <title>docs</title>
 <desc>Created with Sketch.</desc>
 <g>
  <title>background</title>
  <rect x="-1" y="-1" width="190" height="188" id="canvas_background" fill="none"/>
 </g>
 <g>
  <title>Layer 1</title>
  <g id="Blind-whale" fill="none" fill-rule="evenodd">
   <g stroke="null" id="docs" fill="blue">
    <path fill="#559E84" stroke="null" d="m87.859577,104.618068c0,-1.835553 -0.155032,-3.562701 -0.465114,-5.181526c-0.310064,-1.618866 -0.732901,-3.040089 -1.268475,-4.263791c-0.535574,-1.223661 -1.164179,-2.192425 -1.885795,-2.90621c-0.721634,-0.713826 -1.493986,-1.070739 -2.317091,-1.070739c-0.834371,0 -1.612374,0.356913 -2.33399,1.070739c-0.721634,0.713785 -1.347413,1.67616 -1.877354,2.887085c-0.529941,1.210966 -0.949953,2.632188 -1.260016,4.263791c-0.310082,1.631562 -0.465114,3.365098 -0.465114,5.200652c0,1.835512 0.155032,3.569049 0.465114,5.200652c0.310064,1.631562 0.730075,3.052825 1.260016,4.263749c0.529941,1.210924 1.15572,2.1733 1.877354,2.887126c0.721616,0.713826 1.499619,1.070739 2.33399,1.070739c0.823105,0 1.595456,-0.356913 2.317091,-1.070739c0.721616,-0.713826 1.35022,-1.682549 1.885795,-2.906251c0.535574,-1.223702 0.958411,-2.644924 1.268475,-4.263749c0.310082,-1.618866 0.465114,-3.346014 0.465114,-5.181526zm-5.936474,-21.414457c2.243804,0 4.222611,1.567837 5.936474,4.703554l0,-19.081806c0,-1.1472 0.166298,-2.096798 0.498931,-2.848875c0.332615,-0.752036 0.752626,-1.128075 1.260016,-1.128075c0.496124,0 0.916117,0.376039 1.260016,1.128075c0.343899,0.752077 0.515849,1.701675 0.515849,2.848875l0,35.79271c0,5.965465 -0.924558,11.013113 -2.773727,15.143066c-1.871721,4.1809 -4.104222,6.27135 -6.697559,6.27135c-2.615888,0 -4.848389,-2.09045 -6.697559,-6.27135c-1.84917,-4.180941 -2.773727,-9.228589 -2.773727,-15.143066c0,-5.914519 0.924558,-10.962125 2.773727,-15.143066c1.84917,-4.180941 4.081671,-6.271391 6.697559,-6.271391zm30.427194,21.414457c0,5.965465 -0.924558,11.013113 -2.773727,15.143066c-1.871721,4.1809 -4.104222,6.27135 -6.697559,6.27135c-2.615888,0 -4.848389,-2.09045 -6.697559,-6.27135c-1.84917,-4.180941 -2.773727,-9.228589 -2.773727,-15.143066c0,-5.914519 0.924558,-10.962125 2.773727,-15.143066c1.84917,-4.180941 4.081671,-6.271391 6.697559,-6.271391c2.593337,0 4.825838,2.09045 6.697559,6.271391c0.924576,2.09045 1.615182,4.397587 2.071837,6.921452c0.456655,2.523865 0.690624,5.264376 0.701891,8.221615zm-9.471286,-13.422266c-0.834371,0 -1.612374,0.356913 -2.33399,1.070739c-0.721634,0.713785 -1.347413,1.67616 -1.877354,2.887085c-0.529941,1.210966 -0.949953,2.632188 -1.260016,4.263791c-0.310082,1.631562 -0.465114,3.365098 -0.465114,5.200652c0,1.835512 0.155032,3.569049 0.465114,5.200652c0.310064,1.631562 0.730075,3.052825 1.260016,4.263749c0.529941,1.210924 1.15572,2.1733 1.877354,2.887126c0.721616,0.713826 1.499619,1.070739 2.33399,1.070739c0.823105,0 1.595456,-0.356913 2.317091,-1.070739c0.721616,-0.713826 1.35022,-1.682549 1.885795,-2.906251c0.535574,-1.223702 0.958411,-2.644924 1.268475,-4.263749c0.310082,-1.618866 0.465114,-3.346014 0.465114,-5.181526c0,-1.835553 -0.155032,-3.562701 -0.465114,-5.181526c-0.310064,-1.618866 -0.732901,-3.040089 -1.268475,-4.263791c-0.535574,-1.223661 -1.164179,-2.192425 -1.885795,-2.90621c-0.721634,-0.713826 -1.493986,-1.070739 -2.317091,-1.070739zm25.894502,22.714579c0.507408,0 0.927401,0.376039 1.260034,1.128075c0.332615,0.752077 0.498931,1.701675 0.498931,2.848916c0,1.121686 -0.186042,2.103186 -0.558125,2.944461c-1.747699,3.467115 -3.805425,5.200652 -6.173251,5.200652c-2.615906,0 -4.848389,-2.09045 -6.697559,-6.27135c-1.84917,-4.180941 -2.773745,-9.228589 -2.773745,-15.143066c0,-5.914519 0.924576,-10.962125 2.773745,-15.143066c1.84917,-4.180941 4.081653,-6.271391 6.697559,-6.271391c2.379093,0 4.436837,1.733537 6.173251,5.200652c0.405901,0.815801 0.608861,1.822775 0.608861,3.020963c0,1.147241 -0.166316,2.103228 -0.498931,2.868c-0.332633,0.764814 -0.752626,1.1472 -1.260016,1.1472c-0.42847,0 -0.811839,-0.305884 -1.150086,-0.917735c-0.575043,-1.096213 -1.178271,-1.924751 -1.809701,-2.485614c-0.631412,-0.560863 -1.31921,-0.841275 -2.063378,-0.841275c-0.823105,0 -1.595475,0.350524 -2.317091,1.051614c-0.721634,0.701048 -1.353046,1.657035 -1.894254,2.868c-0.541226,1.210924 -0.96687,2.632188 -1.276934,4.263749c-0.310082,1.631603 -0.465114,3.377876 -0.465114,5.238903c0,1.861026 0.155032,3.6073 0.465114,5.238861c0.310064,1.631603 0.735708,3.052825 1.276934,4.263791c0.541208,1.210924 1.172619,2.166911 1.894254,2.868c0.721616,0.701048 1.493986,1.051614 2.317091,1.051614c0.744167,0 1.431966,-0.274063 2.063378,-0.82219c0.63143,-0.548086 1.229006,-1.370235 1.792783,-2.466489c0.315715,-0.535349 0.687799,-0.81576 1.116251,-0.841275zm3.806118,8.106903l0,-53.153675c0,-1.121727 0.17195,-2.071324 0.515849,-2.848875c0.343899,-0.77755 0.763893,-1.166326 1.260016,-1.166326c0.484839,0 0.899199,0.388775 1.243098,1.166326c0.343899,0.77755 0.515849,1.727148 0.515849,2.848875l0,29.827245l10.113983,-14.875392c0.281898,-0.407901 0.597594,-0.611851 0.947145,-0.611851c0.248044,0 0.479188,0.101975 0.693432,0.305926c0.214226,0.20395 0.400268,0.49075 0.558125,0.8604c0.157858,0.369691 0.284705,0.796676 0.380543,1.281037c0.095838,0.484403 0.143765,0.994279 0.143765,1.529628c0,1.427611 -0.225511,2.485614 -0.676532,3.173926l-7.086542,10.401303l7.272584,18.508165c0.327,0.815801 0.49049,1.746273 0.49049,2.79154c0,0.535349 -0.047928,1.045225 -0.143765,1.529586c-0.095838,0.484361 -0.222685,0.911388 -0.380543,1.281037c-0.157858,0.36965 -0.343899,0.65645 -0.558125,0.8604c-0.214244,0.20395 -0.445388,0.305926 -0.693432,0.305926c-0.473573,0 -0.868207,-0.344177 -1.183922,-1.032488l-7.81381,-19.846579l-2.063396,3.059214l0,13.804653c0,1.096213 -0.17195,2.039462 -0.515849,2.829749c-0.343899,0.790328 -0.758259,1.185451 -1.243098,1.185451c-0.496124,0 -0.916117,-0.395123 -1.260016,-1.185451c-0.343899,-0.790287 -0.515849,-1.733537 -0.515849,-2.829749zm33.454617,-21.376206c-0.191675,-1.402138 -0.47638,-2.683175 -0.854097,-3.843112c-0.377735,-1.159937 -0.817454,-2.154174 -1.31921,-2.982712c-0.501757,-0.828538 -1.054249,-1.472251 -1.657476,-1.931139c-0.603246,-0.458888 -1.226199,-0.688312 -1.868895,-0.688312c-0.642696,0 -1.268475,0.229424 -1.877354,0.688312c-0.608861,0.458888 -1.166986,1.102601 -1.674376,1.931139c-0.50739,0.828538 -0.947127,1.822775 -1.31921,2.982712c-0.372102,1.159937 -0.648348,2.440974 -0.828738,3.843112l11.399358,0zm-0.761085,13.345805c0.507408,0 0.927401,0.375997 1.260034,1.128075c0.332615,0.752036 0.498931,1.701675 0.498931,2.848875c0,1.121727 -0.169124,2.077713 -0.50739,2.868c-1.747699,3.467115 -3.811058,5.200652 -6.190169,5.200652c-2.615888,0 -4.848389,-2.09045 -6.697559,-6.27135c-1.84917,-4.180941 -2.773727,-9.228589 -2.773727,-15.143066c0,-5.914519 0.924558,-10.962125 2.773727,-15.143066c1.84917,-4.180941 4.081671,-6.271391 6.697559,-6.271391c2.593337,0 4.825838,2.09045 6.697559,6.271391c0.924576,2.064977 1.618008,4.365725 2.080295,6.902326c0.462288,2.536602 0.693432,5.283501 0.693432,8.24074c0,1.1472 -0.17195,2.096798 -0.515849,2.848875c-0.343899,0.752036 -0.763893,1.128075 -1.260016,1.128075l-13.3951,0c0.191675,1.402138 0.473554,2.683175 0.845638,3.843112c0.372084,1.159978 0.809013,2.154215 1.31077,2.982753c0.501757,0.828538 1.054231,1.47221 1.657476,1.931098c0.603228,0.458888 1.231814,0.688353 1.885795,0.688353c0.744185,0 1.426333,-0.254938 2.046478,-0.764814c0.620145,-0.509876 1.195189,-1.27469 1.72513,-2.2944c0.338266,-0.637365 0.727249,-0.968764 1.166986,-0.994237zm10.013187,-26.806281l0,0.764814c0.845656,-1.529628 1.764599,-2.702301 2.756828,-3.518102c0.992229,-0.815801 2.052111,-1.223702 3.179647,-1.223702c0.496124,0 1.028872,0.076502 1.598282,0.229465c0.56941,0.152963 1.0937,0.427026 1.572905,0.822149c0.479206,0.395164 0.876666,0.936902 1.192381,1.625214c0.315697,0.688312 0.473554,1.580574 0.473554,2.676787c0,0.560863 -0.04791,1.083476 -0.143765,1.567837c-0.095838,0.484403 -0.222685,0.911388 -0.380543,1.281079c-0.157858,0.36965 -0.343881,0.65645 -0.558125,0.8604c-0.214226,0.203909 -0.44537,0.305884 -0.693432,0.305884c-0.214226,0 -0.462288,-0.140185 -0.744167,-0.420637c-0.71035,-0.637324 -1.482719,-0.955986 -2.317091,-0.955986c-0.823105,0 -1.595456,0.350524 -2.317091,1.051614c-0.721616,0.701048 -1.35022,1.657035 -1.885795,2.868c-0.535574,1.210924 -0.958393,2.632188 -1.268475,4.263749c-0.310082,1.631603 -0.465114,3.377876 -0.465114,5.238903l0,17.437467c0,1.096213 -0.17195,2.033073 -0.515849,2.810624c-0.343899,0.77755 -0.758259,1.166326 -1.243098,1.166326c-0.496124,0 -0.916117,-0.388775 -1.260016,-1.166326c-0.343899,-0.77755 -0.515849,-1.714411 -0.515849,-2.810624l0,-34.874933c0,-1.096213 0.17195,-2.033115 0.515849,-2.810665c0.343899,-0.77755 0.763893,-1.166326 1.260016,-1.166326c0.484839,0 0.899199,0.388775 1.243098,1.166326c0.343899,0.77755 0.515849,1.714453 0.515849,2.810665z" id="docker"/>
    <path fill="#559E84" stroke="null" d="m64.192107,77.81022c-1.475956,-2.315463 -4.858343,-3.183777 -7.502762,-2.026025c-0.307493,-5.788719 -1.721939,-10.853803 -4.181866,-15.340051l-1.414465,-2.315463l-0.983952,3.328496c-1.229972,4.341529 -1.84494,10.419645 -1.660448,16.208324c0.061491,2.026025 0.368984,5.643959 1.291445,8.827736c-0.86097,1.157752 -2.6444,2.604901 -4.981326,2.604901l-44.463077,0l-0.123001,1.157752c-0.430476,5.788678 -0.430476,23.878308 4.61236,37.771169c3.812881,10.564323 9.470685,15.918886 16.911955,15.918886c16.112477,0 28.043088,-17.510795 33.639419,-49.203847c2.213925,0.144719 6.949267,0 9.347702,-10.853761c0.061491,-0.289438 0.184492,-0.868314 0.614968,-3.039058l0.246002,-1.157752l-1.352955,-1.881306l0,0zm-28.3506,-40.810227l-6.764775,0l0,14.471696l6.764775,0l0,-14.471696l0,0zm0,17.366035l-6.764775,0l0,14.471737l6.764775,0l0,-14.471737l0,0zm-7.994729,0l-6.764793,0l0,14.471737l6.764793,0l0,-14.471737l0,0zm-7.994747,0l-6.764793,0l0,14.471737l6.764793,0l0,-14.471737l0,0zm-7.994747,17.366076l-6.764775,0l0,14.471696l6.764775,0l0,-14.471696l0,0zm7.994747,0l-6.764793,0l0,14.471696l6.764793,0l0,-14.471696l0,0zm7.994747,0l-6.764793,0l0,14.471696l6.764793,0l0,-14.471696l0,0zm7.994729,0l-6.764775,0l0,14.471696l6.764775,0l0,-14.471696l0,0zm7.994747,0l-6.764775,0l0,14.471696l6.764775,0l0,-14.471696l0,0z" id="Shape"/>
   </g>
  </g>
 </g>
</svg>