<svg width="228.17" height="188" xmlns="http://www.w3.org/2000/svg">
 <defs>
  <style>.cls-1{fill:#3f5dff}.cls-2{fill:#001956}</style>
 </defs>
 <g>
  <title>background</title>
  <rect fill="none" id="canvas_background" height="190" width="230.17" y="-1" x="-1"/>
 </g>
 <g>
  <title>Layer 1</title>
  <path id="svg_1" d="m86.11,89l12.35,-7.93l15.61,8.91l15.76,-9.21l13.06,7.44l-28.74,16.79l-28.04,-16zm-5.2,-59.8l32.84,-19.2l33.07,18.86l0.11,33.19l-13.04,-7.44l-0.06,-18.18l-19.99,-11.4l-19.9,11.62l0.05,18.17l-4.43,2.59l-8.55,5.48l-0.1,-33.69z" class="cls-1"/>
  <path id="svg_2" d="m98.63,41.29l9.4,5.35l-9.36,5.46l-0.04,-10.81zm21.31,27.09l12.94,-7.58l16.07,9.15l10.91,-6.37l-0.07,-12.63l-8.23,-4.7l-0.05,-15l21.39,12.2l0.01,27.57l-23.88,13.95l-29.09,-16.59z" class="cls-1"/>
  <path id="svg_3" d="m55.14,71.63l-0.14,-27.65l21.23,-12.4l0.05,15.04l-8.23,4.8l0.06,12.63l10.98,6.26l50.08,-29.22l0.05,15.04l-50.06,29.2l-24.02,-13.7z" class="cls-1"/>
  <text style="cursor: move;" transform="matrix(1.5955621000157612,0,0,1.708943593560491,-101.55944017684517,-82.2866562791614) " xml:space="preserve" text-anchor="start" font-family="Helvetica, Arial, sans-serif" font-size="24" id="svg_5" y="138.4375" x="83.584991" stroke-width="0" fill="#306856">LoopBack</text>
 </g>
</svg>