<svg width="471" height="233" xmlns="http://www.w3.org/2000/svg">
 <g>
  <title>background</title>
  <rect x="-1" y="-1" width="473" height="235" id="canvas_background" fill="none"/>
 </g>

 <g>
  <title>Layer 1</title>
  <g stroke="null" id="svg_3">
   <path stroke="null" d="m313.644484,51.445876c-3.699142,0.421584 -6.552074,1.220374 -9.8402,2.773578c-5.343204,2.507315 -9.501717,6.323758 -12.233762,11.227445c-1.378112,2.507315 -2.030901,4.104896 -2.635336,6.700965c-0.411016,1.797279 -0.435193,4.504291 -0.435193,56.802883s0.024177,55.005604 0.435193,56.802883c0.604435,2.596069 1.257225,4.19365 2.635336,6.700965c2.732046,4.903686 6.890558,8.72013 12.233762,11.227445c2.732046,1.264752 4.472818,1.863845 7.301574,2.41856c1.958369,0.377207 4.908011,0.399395 61.894133,0.399395s59.935764,-0.022189 61.894133,-0.399395c2.828755,-0.554716 4.569528,-1.153809 7.301574,-2.41856c5.343204,-2.507315 9.501717,-6.323758 12.233762,-11.227445c1.378112,-2.507315 2.030901,-4.104896 2.635336,-6.700965c0.411016,-1.797279 0.435193,-4.504291 0.435193,-56.802883s-0.024177,-55.005604 -0.435193,-56.802883c-0.604435,-2.596069 -1.257225,-4.19365 -2.635336,-6.700965c-3.844206,-6.922851 -10.613877,-11.715595 -19.293562,-13.623816c-1.716595,-0.377207 -4.787124,-0.399395 -61.289698,-0.443773c-32.712016,-0.022189 -59.7907,0.022189 -60.201715,0.066566zm76.231329,34.08173c11.460086,1.996976 18.205579,6.767531 20.695851,14.622305c1.233047,3.949575 1.353934,9.563298 0.265951,13.379742c-0.483548,1.664147 -1.910014,4.504291 -2.949642,5.857797c-1.934192,2.507315 -5.29485,5.059007 -8.703862,6.656588c-0.846209,0.377207 -1.523176,0.776602 -1.523176,0.865356c0,0.110943 0.55608,0.310641 1.233047,0.443773c0.676967,0.15532 2.055079,0.576904 3.070529,0.954111c8.993991,3.283917 14.047067,11.183068 14.071244,21.96674c0,6.345947 -2.175966,11.959669 -6.213591,15.931434c-4.54535,4.504291 -10.928183,7.300058 -20.139771,8.831073c-2.055079,0.332829 -5.053076,0.377207 -28.819456,0.443773l-26.546781,0.088755l0,-90.573972l26.788555,0.088755c23.089413,0.066566 27.030328,0.133132 28.771101,0.443773z" id="svg_1" fill="#5f00bf"/>
   <path stroke="#3f007f" d="m348.952572,106.236866l0,14.368821l17.802447,-0.101546c15.59418,-0.07616 17.966022,-0.126933 19.274625,-0.507732c4.307483,-1.218557 7.824353,-3.782605 9.378318,-6.879771c1.199552,-2.335568 1.526703,-3.884151 1.526703,-7.209797c-0.027263,-6.372039 -2.044691,-10.10387 -6.6248,-12.109412c-3.84402,-1.700903 -3.871282,-1.700903 -23.554845,-1.827836l-17.802447,-0.126933l0,14.394207zm0,43.538034l0,16.272816l19.4382,-0.07616c19.029262,-0.07616 19.465463,-0.101546 21.537417,-0.660052c3.107931,-0.812371 5.23441,-1.954769 7.415414,-3.985698c3.298769,-3.046393 4.580109,-6.321266 4.580109,-11.67784c0,-5.280415 -1.39039,-8.707607 -4.716422,-11.652453c-2.153742,-1.878609 -4.307483,-2.944847 -7.660777,-3.731831c-2.208267,-0.533119 -2.862568,-0.558505 -21.428366,-0.660052l-19.165574,-0.126933l0,16.298203z" id="svg_2" fill="#3f007f"/>
  </g>
  <defs>
   <style>.cls-1{fill:#3f5dff}.cls-2{fill:#001956}</style>
  </defs>
  <defs>
   <clipPath id="svg_32">
    <path id="svg_35" d="m560.888917,402.687153l-42.13,24.317c-1.578,0.91 -2.546,2.59 -2.546,4.406l0,48.668c0,1.817 0.968,3.496 2.546,4.406l42.133,24.336c1.575,0.907 3.517,0.907 5.09,0l42.126,-24.336c1.57,-0.91 2.54,-2.59 2.54,-4.406l0,-48.668c0,-1.816 -0.97,-3.496 -2.55,-4.406l-42.12,-24.317c-0.79,-0.453 -1.67,-0.68 -2.55,-0.68c-0.88,0 -1.76,0.227 -2.55,0.68"/>
   </clipPath>
   <linearGradient y2="0.839896" y1="0.159039" x2="0.330351" x1="0.669275" id="svg_33">
    <stop stop-color="#3E863D" offset="0.3"/>
    <stop stop-color="#55934F" offset="0.5"/>
    <stop stop-color="#5AAD45" offset="0.8"/>
   </linearGradient>
   <clipPath id="svg_30">
    <path id="svg_36" d="m517.256917,483.168153c0.403,0.523 0.907,0.976 1.5,1.316l36.14,20.875l6.02,3.46c0.9,0.52 1.926,0.74 2.934,0.665c0.336,-0.027 0.672,-0.09 1,-0.183l44.434,-81.36c-0.34,-0.37 -0.738,-0.68 -1.184,-0.94l-27.586,-15.93l-14.582,-8.39c-0.414,-0.24 -0.863,-0.41 -1.32,-0.53l-47.356,81.017zm47.356,-81.017"/>
   </clipPath>
   <linearGradient y2="0.293639" y1="0.712954" x2="0.787319" x1="0.217864" id="svg_31">
    <stop stop-color="#3E863D" offset="0.57"/>
    <stop stop-color="#619857" offset="0.72"/>
    <stop stop-color="#76AC64" offset="1"/>
   </linearGradient>
   <clipPath id="svg_28">
    <path id="svg_37" d="m562.924917,402.035153c-0.707,0.07 -1.398,0.29 -2.035,0.652l-42.01,24.247l45.3,82.51c0.63,-0.09 1.25,-0.3 1.81,-0.624l42.13,-24.336c1.3,-0.754 2.19,-2.03 2.46,-3.476l-46.18,-78.89c-0.34,-0.067 -0.68,-0.102 -1.03,-0.102c-0.14,0 -0.28,0.007 -0.42,0.02"/>
   </clipPath>
   <linearGradient y2="0.500028" y1="0.500028" x2="1.000189" x1="0.000337" id="svg_29">
    <stop stop-color="#6BBF47" offset="0.16"/>
    <stop stop-color="#79B461" offset="0.38"/>
    <stop stop-color="#75AC64" offset="0.47"/>
    <stop stop-color="#659E5A" offset="0.7"/>
    <stop stop-color="#3E863D" offset="0.9"/>
   </linearGradient>
  </defs>
  <g stroke="null" id="svg_48">
   <g stroke="null" id="svg_50">
    <path stroke="null" id="svg_38" d="m108.428862,221.579677c-2.31732,0 -4.618767,-0.503338 -6.65039,-1.471902l-21.168557,-10.376908c-3.161713,-1.464017 -1.618949,-1.981811 -0.576156,-2.280134c4.215617,-1.222204 5.071121,-1.498186 9.570848,-3.614045c0.472987,-0.223414 1.091997,-0.144562 1.576095,0.091994l16.262506,7.990324c0.587266,0.26284 1.420549,0.26284 1.96496,0l63.408853,-30.305408c0.587266,-0.275982 0.968195,-0.841087 0.968195,-1.419334l0,-60.584533c0,-0.604531 -0.380929,-1.143352 -0.980893,-1.445618l-63.383457,-30.279124c-0.587266,-0.289124 -1.364997,-0.289124 -1.952263,0l-63.37076,30.279124c-0.614248,0.289124 -1.004701,0.854229 -1.004701,1.432476l0,60.584533c0,0.578247 0.380929,1.13021 0.984067,1.406192l17.364026,8.305732c9.428,3.903168 15.189555,-0.696525 15.189555,-5.322502l0,-59.796014c0,-0.854229 0.809475,-1.511328 1.841158,-1.511328l8.031259,0c0.999939,0 1.825286,0.657099 1.825286,1.511328l0,59.822298c0,10.408449 -6.856727,16.38805 -18.776639,16.38805c-3.666444,0 -6.555158,0 -14.618161,-3.285495l-16.633912,-7.937757c-4.110862,-1.971297 -6.65039,-5.651052 -6.65039,-9.580504l0,-60.584533c0,-3.942594 2.539529,-7.622349 6.65039,-9.567362l63.472341,-30.31855c4.015629,-1.879303 9.348639,-1.879303 13.332525,0l63.392981,30.331692c4.09499,1.958155 6.65039,5.624768 6.65039,9.567362l0,60.584533c0,3.929452 -2.555401,7.596065 -6.65039,9.567362l-63.392981,30.31855c-2.031623,0.972507 -4.333071,1.471902 -6.682134,1.471902" fill="#689f63"/>
    <path stroke="null" id="svg_39" d="m134.129065,182.527101c-24.03116,0 -29.069729,-10.739849 -29.069729,-19.747723c0,-0.856618 0.709387,-1.539236 1.590621,-1.539236l7.093866,0c0.783625,0 1.443519,0.555463 1.56725,1.309019c1.072329,7.037653 4.261819,10.587264 18.793247,10.587264c11.57565,0 16.497364,-2.545762 16.497364,-8.522011c0,-3.439857 -1.402276,-5.996326 -19.384402,-7.709563c-15.040096,-1.445543 -24.333611,-4.671245 -24.333611,-16.38282c0,-10.788034 9.348506,-17.212669 25.007254,-17.212669c17.58344,0 26.299547,5.942788 27.399371,18.711751c0.041243,0.441694 -0.12373,0.870003 -0.426182,1.191234c-0.302452,0.307847 -0.728634,0.495232 -1.168563,0.495232l-7.13511,0c-0.742381,0 -1.388528,-0.508617 -1.539754,-1.204619c-1.718475,-7.401715 -5.870312,-9.7708 -17.157258,-9.7708c-12.634231,0 -14.105246,4.28309 -14.105246,7.495408c0,3.894935 1.732223,5.032631 18.779499,7.227715c16.882302,2.181699 24.897271,5.26017 24.897271,16.811129c0,11.644652 -9.980905,18.323596 -27.385623,18.323596m66.896809,-65.437589l1.842206,0c1.512258,0 1.800962,-1.030619 1.800962,-1.632928c0,-1.57939 -1.113572,-1.57939 -1.732223,-1.57939l-1.897197,0l-0.013748,3.212318zm-2.240892,-5.0594l4.083097,0c1.402276,0 4.151836,0 4.151836,3.051702c0,2.12816 -1.402276,2.569854 -2.240892,2.837547c1.635989,0.107077 1.745971,1.151081 1.965936,2.623393c0.109982,0.923541 0.288704,2.516316 0.618651,3.051702l-2.515848,0c-0.068739,-0.535386 -0.453677,-3.480011 -0.453677,-3.640627c-0.164974,-0.655848 -0.398686,-0.97708 -1.237302,-0.97708l-2.075918,0l0,4.631091l-2.295883,0l0,-11.577728zm-4.907966,5.755403c0,4.791707 3.973115,8.673258 8.853585,8.673258c4.921713,0 8.894828,-3.961859 8.894828,-8.673258c0,-4.805092 -4.028106,-8.619719 -8.908576,-8.619719c-4.811731,0 -8.853585,3.761089 -8.853585,8.606335m19.466889,0.040154c0,5.675095 -4.770488,10.306186 -10.585808,10.306186c-5.774077,0 -10.585808,-4.577553 -10.585808,-10.306186c0,-5.835711 4.921713,-10.306186 10.585808,-10.306186c5.705338,0 10.57206,4.48386 10.57206,10.306186" fill="#689f63"/>
    <path stroke="null" id="svg_41" d="m43.734324,27.690898c0.789167,-0.447623 1.778257,-0.447623 2.577947,0l21.386438,11.860738c0.79969,0.445094 1.288974,1.264471 1.288974,2.149601l0,23.746766c0,0.88513 -0.489284,1.704507 -1.288974,2.149601l-21.386438,11.860738c-0.79969,0.447623 -1.78878,0.447623 -2.577947,0l-21.373285,-11.860738c-0.815473,-0.445094 -1.315279,-1.264471 -1.315279,-2.149601l0,-23.746766c0,-0.88513 0.4735,-1.704507 1.288974,-2.149601l21.399591,-11.860738zm-21.399591,11.860738" fill-rule="evenodd" fill="#689f63"/>
    <g stroke="null" transform="matrix(1.193217056606484,0,0,1.042329530046947,-6858.847410824,-2616.5445256229636) " id="svg_42" clip-path="url(#svg_32)">
     <path stroke="null" id="svg_43" d="m5877.464102,2530.163744l-118.715,-58.19l-60.87,124.174l118.712,58.193l60.873,-124.177zm-60.873,124.177" fill="url(#svg_33)"/>
    </g>
    <g stroke="null" transform="matrix(1.193217056606484,0,0,1.042329530046947,-6858.847410824,-2616.5445256229636) " id="svg_44" clip-path="url(#svg_30)">
     <path stroke="null" id="svg_45" d="m5690.171102,2547.374744l83.825,113.453l110.86,-81.906l-83.83,-113.45l-110.855,81.903zm110.855,-81.903" fill="url(#svg_31)"/>
    </g>
    <g stroke="null" transform="matrix(1.193217056606484,0,0,1.042329530046947,-6858.847410824,-2616.5445256229636) " id="svg_46" clip-path="url(#svg_28)">
     <path stroke="null" id="svg_47" d="m5743.121102,2509.304744l0,107.43l91.683,0l0,-107.43l-91.683,0zm91.683,0" fill="url(#svg_29)"/>
    </g>
    <text stroke="null" transform="matrix(1.7138622811942616,0,0,1.709427210161667,-120.09829307443209,-71.52718526157106) " xml:space="preserve" text-anchor="start" font-family="Helvetica, Arial, sans-serif" font-size="24" id="svg_49" y="78.282954" x="119.552088" fill-opacity="null" stroke-opacity="null" stroke-width="0" fill="#689f63">Node.js</text>
   </g>
  </g>
  <text stroke="null" transform="matrix(3.142857074737549,0,0,2.777777671813965,-488.57141304016113,-186.6666555404663) " xml:space="preserve" text-anchor="start" font-family="Helvetica, Arial, sans-serif" font-size="24" id="svg_52" y="122.1" x="228.000001" stroke-opacity="null" stroke-width="0" fill="#bf005f">+</text>
 </g>
</svg>