<svg width="128.4211" height="127.8461" xmlns="http://www.w3.org/2000/svg" xmlns:xlink="http://www.w3.org/1999/xlink">
 <defs>
  <linearGradient id="linearGradient11301">
   <stop stop-color="#ffe052" offset="0" id="stop11303"/>
   <stop stop-color="#ffc331" offset="1" id="stop11305"/>
  </linearGradient>
  <linearGradient xlink:href="#linearGradient11301" id="linearGradient11307" x1="0.191275" y1="0.203158" x2="0.907415" y2="0.88773"/>
  <linearGradient id="linearGradient9515">
   <stop stop-color="#387eb8" offset="0" id="stop9517"/>
   <stop stop-color="#366994" offset="1" id="stop9519"/>
  </linearGradient>
  <linearGradient xlink:href="#linearGradient9515" id="linearGradient9521" x1="0.129594" y1="0.116996" x2="0.796388" y2="0.784533"/>
 </defs>
 <metadata id="metadata2174">image/svg+xml</metadata>
 <g>
  <title>background</title>
  <rect fill="none" id="canvas_background" height="129.8461" width="130.4211" y="-1" x="-1"/>
 </g>
 <g>
  <title>Layer 1</title>
  <g id="layer1">
   <g id="g1894">
    <path fill="url(#linearGradient9521)" fill-rule="nonzero" marker-start="none" marker-mid="none" marker-end="none" stroke-miterlimit="4" stroke-dashoffset="0" id="path8615" d="m63.8125,11c-28.031732,0.000002 -26.28125,12.15625 -26.28125,12.15625l0.03125,12.59375l26.75,0l0,3.78125l-37.375,0c0,0 -17.9375,-2.034276 -17.9375,26.25c-0.000002,28.28427 15.65625,27.28125 15.65625,27.28125l9.34375,0l0,-13.125c0,0 -0.503652,-15.65625 15.40625,-15.65625c15.9099,0 26.53125,0 26.53125,0c0,0 14.90625,0.24096 14.90625,-14.40625c0,-14.647206 0,-24.21875 0,-24.21875c0,-0.000002 2.26318,-14.65625 -27.03125,-14.65625zm-14.75,8.46875c2.661429,-0.000002 4.8125,2.151071 4.8125,4.8125c0.000002,2.661429 -2.151071,4.8125 -4.8125,4.8125c-2.661429,0.000002 -4.8125,-2.151071 -4.8125,-4.8125c-0.000002,-2.661429 2.151071,-4.8125 4.8125,-4.8125z"/>
    <path fill="url(#linearGradient11307)" fill-rule="nonzero" marker-start="none" marker-mid="none" marker-end="none" stroke-miterlimit="4" stroke-dashoffset="0" d="m64.6086,120.8461c28.03174,0 26.28125,-12.15625 26.28125,-12.15625l-0.03125,-12.59375l-26.75,0l0,-3.78125l37.375,0c0,0 17.9375,2.03427 17.9375,-26.25001c0.00001,-28.284267 -15.65625,-27.281247 -15.65625,-27.281247l-9.34375,0l0,13.124997c0,0 0.50366,15.65625 -15.40625,15.65625c-15.909902,0 -26.531252,0 -26.531252,0c0,0 -14.90625,-0.24096 -14.90625,14.40626c0,14.6472 0,24.21875 0,24.21875c0,0 -2.26318,14.65625 27.031252,14.65625zm14.75,-8.46875c-2.66143,0 -4.8125,-2.15107 -4.8125,-4.8125c0,-2.66143 2.15107,-4.8125 4.8125,-4.8125c2.66143,0 4.8125,2.15107 4.8125,4.8125c0.00001,2.66143 -2.15107,4.8125 -4.8125,4.8125z" id="path8620"/>
   </g>
  </g>
 </g>
</svg>